<mxfile host="app.diagrams.net" agent="Mozilla/5.0 (X11; Linux x86_64; rv:131.0) Gecko/20100101 Firefox/131.0" version="24.7.17">
  <diagram name="Page-1" id="74b105a0-9070-1c63-61bc-23e55f88626e">
    <mxGraphModel dx="1912" dy="999" grid="1" gridSize="10" guides="1" tooltips="1" connect="1" arrows="1" fold="1" page="1" pageScale="1.5" pageWidth="1169" pageHeight="826" background="none" math="0" shadow="0">
      <root>
        <mxCell id="0" style=";html=1;" />
        <mxCell id="1" style=";html=1;" parent="0" />
        <mxCell id="4jEnMWwqSxnV5b4VweoV-8" value="" style="rounded=0;whiteSpace=wrap;html=1;" vertex="1" parent="1">
          <mxGeometry x="20" y="110" width="400" height="270" as="geometry" />
        </mxCell>
        <mxCell id="4jEnMWwqSxnV5b4VweoV-19" value="" style="edgeStyle=orthogonalEdgeStyle;rounded=0;orthogonalLoop=1;jettySize=auto;html=1;" edge="1" parent="1" source="4jEnMWwqSxnV5b4VweoV-2" target="4jEnMWwqSxnV5b4VweoV-17">
          <mxGeometry relative="1" as="geometry" />
        </mxCell>
        <mxCell id="4jEnMWwqSxnV5b4VweoV-2" value="spGPS" style="rounded=0;whiteSpace=wrap;html=1;" vertex="1" parent="1">
          <mxGeometry x="40" y="130" width="110" height="30" as="geometry" />
        </mxCell>
        <mxCell id="4jEnMWwqSxnV5b4VweoV-3" value="spSteerModule" style="rounded=0;whiteSpace=wrap;html=1;" vertex="1" parent="1">
          <mxGeometry x="40" y="180" width="110" height="30" as="geometry" />
        </mxCell>
        <mxCell id="4jEnMWwqSxnV5b4VweoV-26" style="edgeStyle=orthogonalEdgeStyle;rounded=0;orthogonalLoop=1;jettySize=auto;html=1;" edge="1" parent="1" source="4jEnMWwqSxnV5b4VweoV-4" target="4jEnMWwqSxnV5b4VweoV-16">
          <mxGeometry relative="1" as="geometry" />
        </mxCell>
        <mxCell id="4jEnMWwqSxnV5b4VweoV-4" value="spMachineModule" style="rounded=0;whiteSpace=wrap;html=1;" vertex="1" parent="1">
          <mxGeometry x="40" y="230" width="110" height="30" as="geometry" />
        </mxCell>
        <mxCell id="4jEnMWwqSxnV5b4VweoV-27" style="edgeStyle=orthogonalEdgeStyle;rounded=0;orthogonalLoop=1;jettySize=auto;html=1;" edge="1" parent="1" source="4jEnMWwqSxnV5b4VweoV-5" target="4jEnMWwqSxnV5b4VweoV-13">
          <mxGeometry relative="1" as="geometry" />
        </mxCell>
        <mxCell id="4jEnMWwqSxnV5b4VweoV-5" value="spIMU" style="rounded=0;whiteSpace=wrap;html=1;" vertex="1" parent="1">
          <mxGeometry x="40" y="280" width="110" height="30" as="geometry" />
        </mxCell>
        <mxCell id="4jEnMWwqSxnV5b4VweoV-6" value="spRtcm" style="rounded=0;whiteSpace=wrap;html=1;" vertex="1" parent="1">
          <mxGeometry x="40" y="330" width="110" height="30" as="geometry" />
        </mxCell>
        <mxCell id="4jEnMWwqSxnV5b4VweoV-7" value="AgIO" style="rounded=0;whiteSpace=wrap;html=1;" vertex="1" parent="1">
          <mxGeometry x="20" y="20" width="1080" height="30" as="geometry" />
        </mxCell>
        <mxCell id="4jEnMWwqSxnV5b4VweoV-9" value="Objetos Serial Ports" style="text;html=1;align=center;verticalAlign=middle;whiteSpace=wrap;rounded=0;" vertex="1" parent="1">
          <mxGeometry x="20" y="80" width="110" height="30" as="geometry" />
        </mxCell>
        <mxCell id="4jEnMWwqSxnV5b4VweoV-10" value="SerialComm.Designer.cs" style="text;html=1;align=center;verticalAlign=middle;whiteSpace=wrap;rounded=0;" vertex="1" parent="1">
          <mxGeometry x="200" y="60" width="270" height="30" as="geometry" />
        </mxCell>
        <mxCell id="4jEnMWwqSxnV5b4VweoV-40" style="edgeStyle=orthogonalEdgeStyle;rounded=0;orthogonalLoop=1;jettySize=auto;html=1;" edge="1" parent="1" source="4jEnMWwqSxnV5b4VweoV-13" target="4jEnMWwqSxnV5b4VweoV-39">
          <mxGeometry relative="1" as="geometry" />
        </mxCell>
        <mxCell id="4jEnMWwqSxnV5b4VweoV-13" value="sp_DataReceivedIMU" style="rounded=0;whiteSpace=wrap;html=1;" vertex="1" parent="1">
          <mxGeometry x="200" y="280" width="200" height="30" as="geometry" />
        </mxCell>
        <mxCell id="4jEnMWwqSxnV5b4VweoV-29" style="edgeStyle=orthogonalEdgeStyle;rounded=0;orthogonalLoop=1;jettySize=auto;html=1;" edge="1" parent="1" source="4jEnMWwqSxnV5b4VweoV-14" target="4jEnMWwqSxnV5b4VweoV-18">
          <mxGeometry relative="1" as="geometry" />
        </mxCell>
        <mxCell id="4jEnMWwqSxnV5b4VweoV-14" value="ReceiveGPSPort" style="rounded=0;whiteSpace=wrap;html=1;" vertex="1" parent="1">
          <mxGeometry x="440" y="130" width="140" height="30" as="geometry" />
        </mxCell>
        <mxCell id="4jEnMWwqSxnV5b4VweoV-38" style="edgeStyle=orthogonalEdgeStyle;rounded=0;orthogonalLoop=1;jettySize=auto;html=1;" edge="1" parent="1" source="4jEnMWwqSxnV5b4VweoV-16" target="4jEnMWwqSxnV5b4VweoV-37">
          <mxGeometry relative="1" as="geometry" />
        </mxCell>
        <mxCell id="4jEnMWwqSxnV5b4VweoV-16" value="sp_DataReceivedMachineModule" style="rounded=0;whiteSpace=wrap;html=1;" vertex="1" parent="1">
          <mxGeometry x="200" y="230" width="200" height="30" as="geometry" />
        </mxCell>
        <mxCell id="4jEnMWwqSxnV5b4VweoV-28" style="edgeStyle=orthogonalEdgeStyle;rounded=0;orthogonalLoop=1;jettySize=auto;html=1;" edge="1" parent="1" source="4jEnMWwqSxnV5b4VweoV-17" target="4jEnMWwqSxnV5b4VweoV-14">
          <mxGeometry relative="1" as="geometry" />
        </mxCell>
        <mxCell id="4jEnMWwqSxnV5b4VweoV-17" value="sp_DataReceivedGPS" style="rounded=0;whiteSpace=wrap;html=1;" vertex="1" parent="1">
          <mxGeometry x="200" y="130" width="200" height="30" as="geometry" />
        </mxCell>
        <mxCell id="4jEnMWwqSxnV5b4VweoV-53" style="edgeStyle=orthogonalEdgeStyle;rounded=0;orthogonalLoop=1;jettySize=auto;html=1;entryX=0;entryY=0.5;entryDx=0;entryDy=0;" edge="1" parent="1" source="4jEnMWwqSxnV5b4VweoV-18" target="4jEnMWwqSxnV5b4VweoV-45">
          <mxGeometry relative="1" as="geometry" />
        </mxCell>
        <mxCell id="4jEnMWwqSxnV5b4VweoV-18" value="ParseNMEA" style="rounded=0;whiteSpace=wrap;html=1;" vertex="1" parent="1">
          <mxGeometry x="610" y="130" width="140" height="30" as="geometry" />
        </mxCell>
        <mxCell id="4jEnMWwqSxnV5b4VweoV-22" value="" style="edgeStyle=orthogonalEdgeStyle;rounded=0;orthogonalLoop=1;jettySize=auto;html=1;" edge="1" parent="1" source="4jEnMWwqSxnV5b4VweoV-3" target="4jEnMWwqSxnV5b4VweoV-15">
          <mxGeometry relative="1" as="geometry">
            <mxPoint x="150" y="195" as="sourcePoint" />
            <mxPoint x="300" y="160" as="targetPoint" />
          </mxGeometry>
        </mxCell>
        <mxCell id="4jEnMWwqSxnV5b4VweoV-31" style="edgeStyle=orthogonalEdgeStyle;rounded=0;orthogonalLoop=1;jettySize=auto;html=1;" edge="1" parent="1" source="4jEnMWwqSxnV5b4VweoV-15" target="4jEnMWwqSxnV5b4VweoV-30">
          <mxGeometry relative="1" as="geometry" />
        </mxCell>
        <mxCell id="4jEnMWwqSxnV5b4VweoV-15" value="sp_DataReceivedSteerModule" style="rounded=0;whiteSpace=wrap;html=1;" vertex="1" parent="1">
          <mxGeometry x="200" y="180" width="200" height="30" as="geometry" />
        </mxCell>
        <mxCell id="4jEnMWwqSxnV5b4VweoV-54" style="edgeStyle=orthogonalEdgeStyle;rounded=0;orthogonalLoop=1;jettySize=auto;html=1;entryX=0;entryY=0.5;entryDx=0;entryDy=0;" edge="1" parent="1" source="4jEnMWwqSxnV5b4VweoV-30" target="4jEnMWwqSxnV5b4VweoV-45">
          <mxGeometry relative="1" as="geometry">
            <Array as="points">
              <mxPoint x="820" y="195" />
            </Array>
          </mxGeometry>
        </mxCell>
        <mxCell id="4jEnMWwqSxnV5b4VweoV-30" value="ReceiveSteerModulePort" style="rounded=0;whiteSpace=wrap;html=1;" vertex="1" parent="1">
          <mxGeometry x="440" y="180" width="140" height="30" as="geometry" />
        </mxCell>
        <mxCell id="4jEnMWwqSxnV5b4VweoV-32" value="UDP.Designer.cs" style="text;html=1;align=center;verticalAlign=middle;whiteSpace=wrap;rounded=0;" vertex="1" parent="1">
          <mxGeometry x="777" y="60" width="160" height="30" as="geometry" />
        </mxCell>
        <mxCell id="4jEnMWwqSxnV5b4VweoV-33" value="" style="endArrow=none;dashed=1;html=1;dashPattern=1 3;strokeWidth=2;rounded=0;" edge="1" parent="1">
          <mxGeometry width="50" height="50" relative="1" as="geometry">
            <mxPoint x="770" y="500" as="sourcePoint" />
            <mxPoint x="770" y="50" as="targetPoint" />
          </mxGeometry>
        </mxCell>
        <mxCell id="4jEnMWwqSxnV5b4VweoV-35" value="En el objeto DataReceived += sp_DataReceived" style="text;html=1;align=center;verticalAlign=middle;whiteSpace=wrap;rounded=0;" vertex="1" parent="1">
          <mxGeometry x="20" y="415" width="270" height="30" as="geometry" />
        </mxCell>
        <mxCell id="4jEnMWwqSxnV5b4VweoV-55" style="edgeStyle=orthogonalEdgeStyle;rounded=0;orthogonalLoop=1;jettySize=auto;html=1;entryX=0;entryY=0.5;entryDx=0;entryDy=0;" edge="1" parent="1" source="4jEnMWwqSxnV5b4VweoV-37" target="4jEnMWwqSxnV5b4VweoV-45">
          <mxGeometry relative="1" as="geometry">
            <Array as="points">
              <mxPoint x="820" y="245" />
              <mxPoint x="820" y="145" />
            </Array>
          </mxGeometry>
        </mxCell>
        <mxCell id="4jEnMWwqSxnV5b4VweoV-37" value="ReceiveMachineModulePort" style="rounded=0;whiteSpace=wrap;html=1;" vertex="1" parent="1">
          <mxGeometry x="440" y="230" width="140" height="30" as="geometry" />
        </mxCell>
        <mxCell id="4jEnMWwqSxnV5b4VweoV-56" style="edgeStyle=orthogonalEdgeStyle;rounded=0;orthogonalLoop=1;jettySize=auto;html=1;entryX=0;entryY=0.5;entryDx=0;entryDy=0;" edge="1" parent="1" source="4jEnMWwqSxnV5b4VweoV-39" target="4jEnMWwqSxnV5b4VweoV-45">
          <mxGeometry relative="1" as="geometry">
            <Array as="points">
              <mxPoint x="820" y="295" />
              <mxPoint x="820" y="145" />
            </Array>
          </mxGeometry>
        </mxCell>
        <mxCell id="4jEnMWwqSxnV5b4VweoV-39" value="ReceiveIMUPort" style="rounded=0;whiteSpace=wrap;html=1;" vertex="1" parent="1">
          <mxGeometry x="440" y="280" width="140" height="30" as="geometry" />
        </mxCell>
        <mxCell id="4jEnMWwqSxnV5b4VweoV-41" value="&lt;div style=&quot;color: #cccccc;background-color: #1f1f1f;font-family: &#39;Droid Sans Mono&#39;, &#39;monospace&#39;, monospace;font-weight: normal;font-size: 14px;line-height: 19px;white-space: pre;&quot;&gt;&lt;div&gt;&lt;span style=&quot;color: #569cd6;&quot;&gt;public&lt;/span&gt;&lt;span style=&quot;color: #cccccc;&quot;&gt; &lt;/span&gt;&lt;span style=&quot;color: #569cd6;&quot;&gt;partial&lt;/span&gt;&lt;span style=&quot;color: #cccccc;&quot;&gt; &lt;/span&gt;&lt;span style=&quot;color: #569cd6;&quot;&gt;class&lt;/span&gt;&lt;span style=&quot;color: #cccccc;&quot;&gt; &lt;/span&gt;&lt;span style=&quot;color: #4ec9b0;&quot;&gt;FormLoop&lt;/span&gt;&lt;/div&gt;&lt;/div&gt;" style="text;whiteSpace=wrap;html=1;" vertex="1" parent="1">
          <mxGeometry x="30" y="455" width="280" height="40" as="geometry" />
        </mxCell>
        <mxCell id="4jEnMWwqSxnV5b4VweoV-44" value="SendDataLoopAsync" style="rounded=0;whiteSpace=wrap;html=1;" vertex="1" parent="1">
          <mxGeometry x="890" y="260" width="193" height="25" as="geometry" />
        </mxCell>
        <mxCell id="4jEnMWwqSxnV5b4VweoV-50" style="edgeStyle=orthogonalEdgeStyle;rounded=0;orthogonalLoop=1;jettySize=auto;html=1;" edge="1" parent="1" source="4jEnMWwqSxnV5b4VweoV-45" target="4jEnMWwqSxnV5b4VweoV-46">
          <mxGeometry relative="1" as="geometry" />
        </mxCell>
        <mxCell id="4jEnMWwqSxnV5b4VweoV-45" value="SendToLoopBackMessageAOG" style="rounded=0;whiteSpace=wrap;html=1;" vertex="1" parent="1">
          <mxGeometry x="840" y="130" width="193" height="30" as="geometry" />
        </mxCell>
        <mxCell id="4jEnMWwqSxnV5b4VweoV-52" style="edgeStyle=orthogonalEdgeStyle;rounded=0;orthogonalLoop=1;jettySize=auto;html=1;" edge="1" parent="1" source="4jEnMWwqSxnV5b4VweoV-46" target="4jEnMWwqSxnV5b4VweoV-44">
          <mxGeometry relative="1" as="geometry" />
        </mxCell>
        <mxCell id="4jEnMWwqSxnV5b4VweoV-46" value="SendDataToLoopBack" style="whiteSpace=wrap;html=1;rounded=0;" vertex="1" parent="1">
          <mxGeometry x="860" y="200" width="193" height="25" as="geometry" />
        </mxCell>
        <mxCell id="4jEnMWwqSxnV5b4VweoV-57" value="" style="endArrow=none;html=1;rounded=0;" edge="1" parent="1">
          <mxGeometry width="50" height="50" relative="1" as="geometry">
            <mxPoint x="1100" y="500" as="sourcePoint" />
            <mxPoint x="1100" y="50" as="targetPoint" />
          </mxGeometry>
        </mxCell>
        <mxCell id="4jEnMWwqSxnV5b4VweoV-58" value="AogGPS" style="rounded=0;whiteSpace=wrap;html=1;" vertex="1" parent="1">
          <mxGeometry x="1100" y="20" width="260" height="30" as="geometry" />
        </mxCell>
        <mxCell id="4jEnMWwqSxnV5b4VweoV-59" value="UDPComm.Designer.cs" style="text;html=1;align=center;verticalAlign=middle;whiteSpace=wrap;rounded=0;" vertex="1" parent="1">
          <mxGeometry x="1140" y="60" width="160" height="30" as="geometry" />
        </mxCell>
        <mxCell id="4jEnMWwqSxnV5b4VweoV-70" style="edgeStyle=orthogonalEdgeStyle;rounded=0;orthogonalLoop=1;jettySize=auto;html=1;" edge="1" parent="1" source="4jEnMWwqSxnV5b4VweoV-60" target="4jEnMWwqSxnV5b4VweoV-61">
          <mxGeometry relative="1" as="geometry" />
        </mxCell>
        <mxCell id="4jEnMWwqSxnV5b4VweoV-60" value="ReceiveAppData" style="rounded=0;whiteSpace=wrap;html=1;" vertex="1" parent="1">
          <mxGeometry x="1120" y="130" width="120" height="30" as="geometry" />
        </mxCell>
        <mxCell id="4jEnMWwqSxnV5b4VweoV-61" value="ReceiveFromAgIO" style="rounded=0;whiteSpace=wrap;html=1;" vertex="1" parent="1">
          <mxGeometry x="1180" y="197.5" width="120" height="30" as="geometry" />
        </mxCell>
        <mxCell id="4jEnMWwqSxnV5b4VweoV-62" value="SendPgnToLoop" style="rounded=0;whiteSpace=wrap;html=1;" vertex="1" parent="1">
          <mxGeometry x="1185" y="300" width="150" height="30" as="geometry" />
        </mxCell>
        <mxCell id="4jEnMWwqSxnV5b4VweoV-63" value="SendAsyncLoopData" style="rounded=0;whiteSpace=wrap;html=1;" vertex="1" parent="1">
          <mxGeometry x="1150" y="370" width="150" height="30" as="geometry" />
        </mxCell>
        <mxCell id="4jEnMWwqSxnV5b4VweoV-68" style="edgeStyle=orthogonalEdgeStyle;rounded=0;orthogonalLoop=1;jettySize=auto;html=1;" edge="1" parent="1" source="4jEnMWwqSxnV5b4VweoV-66" target="4jEnMWwqSxnV5b4VweoV-67">
          <mxGeometry relative="1" as="geometry" />
        </mxCell>
        <mxCell id="4jEnMWwqSxnV5b4VweoV-66" value="ReceiveDataLoopAsync" style="rounded=0;whiteSpace=wrap;html=1;" vertex="1" parent="1">
          <mxGeometry x="889" y="320" width="193" height="25" as="geometry" />
        </mxCell>
        <mxCell id="4jEnMWwqSxnV5b4VweoV-79" style="edgeStyle=orthogonalEdgeStyle;rounded=0;orthogonalLoop=1;jettySize=auto;html=1;entryX=1;entryY=0.5;entryDx=0;entryDy=0;" edge="1" parent="1" source="4jEnMWwqSxnV5b4VweoV-67" target="4jEnMWwqSxnV5b4VweoV-78">
          <mxGeometry relative="1" as="geometry" />
        </mxCell>
        <mxCell id="4jEnMWwqSxnV5b4VweoV-80" style="edgeStyle=orthogonalEdgeStyle;rounded=0;orthogonalLoop=1;jettySize=auto;html=1;entryX=1;entryY=0.5;entryDx=0;entryDy=0;" edge="1" parent="1" source="4jEnMWwqSxnV5b4VweoV-67" target="4jEnMWwqSxnV5b4VweoV-75">
          <mxGeometry relative="1" as="geometry" />
        </mxCell>
        <mxCell id="4jEnMWwqSxnV5b4VweoV-81" style="edgeStyle=orthogonalEdgeStyle;rounded=0;orthogonalLoop=1;jettySize=auto;html=1;" edge="1" parent="1" source="4jEnMWwqSxnV5b4VweoV-67" target="4jEnMWwqSxnV5b4VweoV-76">
          <mxGeometry relative="1" as="geometry" />
        </mxCell>
        <mxCell id="4jEnMWwqSxnV5b4VweoV-82" style="edgeStyle=orthogonalEdgeStyle;rounded=0;orthogonalLoop=1;jettySize=auto;html=1;entryX=1;entryY=0.5;entryDx=0;entryDy=0;" edge="1" parent="1" source="4jEnMWwqSxnV5b4VweoV-67" target="4jEnMWwqSxnV5b4VweoV-77">
          <mxGeometry relative="1" as="geometry" />
        </mxCell>
        <mxCell id="4jEnMWwqSxnV5b4VweoV-67" value="ReceiveFromLoopBack" style="rounded=0;whiteSpace=wrap;html=1;" vertex="1" parent="1">
          <mxGeometry x="857" y="380" width="193" height="25" as="geometry" />
        </mxCell>
        <mxCell id="4jEnMWwqSxnV5b4VweoV-69" value="" style="shape=flexArrow;endArrow=classic;html=1;rounded=0;entryX=0;entryY=0.5;entryDx=0;entryDy=0;fillColor=#f8cecc;strokeColor=#b85450;" edge="1" parent="1" target="4jEnMWwqSxnV5b4VweoV-60">
          <mxGeometry width="50" height="50" relative="1" as="geometry">
            <mxPoint x="1070" y="260" as="sourcePoint" />
            <mxPoint x="1120" y="210" as="targetPoint" />
          </mxGeometry>
        </mxCell>
        <mxCell id="4jEnMWwqSxnV5b4VweoV-71" style="edgeStyle=orthogonalEdgeStyle;rounded=0;orthogonalLoop=1;jettySize=auto;html=1;entryX=0.443;entryY=0.122;entryDx=0;entryDy=0;entryPerimeter=0;" edge="1" parent="1" source="4jEnMWwqSxnV5b4VweoV-62" target="4jEnMWwqSxnV5b4VweoV-63">
          <mxGeometry relative="1" as="geometry" />
        </mxCell>
        <mxCell id="4jEnMWwqSxnV5b4VweoV-72" value="" style="shape=flexArrow;endArrow=classic;html=1;rounded=0;entryX=1;entryY=0.5;entryDx=0;entryDy=0;fillColor=#f8cecc;strokeColor=#b85450;exitX=0;exitY=0.25;exitDx=0;exitDy=0;" edge="1" parent="1" source="4jEnMWwqSxnV5b4VweoV-63" target="4jEnMWwqSxnV5b4VweoV-66">
          <mxGeometry width="50" height="50" relative="1" as="geometry">
            <mxPoint x="1003" y="565" as="sourcePoint" />
            <mxPoint x="1053" y="450" as="targetPoint" />
          </mxGeometry>
        </mxCell>
        <mxCell id="4jEnMWwqSxnV5b4VweoV-75" value="SendSteerModulePort" style="rounded=0;whiteSpace=wrap;html=1;" vertex="1" parent="1">
          <mxGeometry x="560" y="370" width="140" height="30" as="geometry" />
        </mxCell>
        <mxCell id="4jEnMWwqSxnV5b4VweoV-76" value="SendMachineModulePort" style="rounded=0;whiteSpace=wrap;html=1;" vertex="1" parent="1">
          <mxGeometry x="560" y="405" width="140" height="30" as="geometry" />
        </mxCell>
        <mxCell id="4jEnMWwqSxnV5b4VweoV-77" value="SendIMUPort" style="rounded=0;whiteSpace=wrap;html=1;" vertex="1" parent="1">
          <mxGeometry x="560" y="450" width="140" height="30" as="geometry" />
        </mxCell>
        <mxCell id="4jEnMWwqSxnV5b4VweoV-78" value="SendGPSPort" style="rounded=0;whiteSpace=wrap;html=1;" vertex="1" parent="1">
          <mxGeometry x="560" y="330" width="140" height="30" as="geometry" />
        </mxCell>
        <mxCell id="4jEnMWwqSxnV5b4VweoV-83" style="edgeStyle=orthogonalEdgeStyle;rounded=0;orthogonalLoop=1;jettySize=auto;html=1;entryX=0.999;entryY=0.897;entryDx=0;entryDy=0;entryPerimeter=0;" edge="1" parent="1" source="4jEnMWwqSxnV5b4VweoV-78" target="4jEnMWwqSxnV5b4VweoV-8">
          <mxGeometry relative="1" as="geometry" />
        </mxCell>
        <mxCell id="4jEnMWwqSxnV5b4VweoV-84" style="edgeStyle=orthogonalEdgeStyle;rounded=0;orthogonalLoop=1;jettySize=auto;html=1;entryX=0.995;entryY=0.897;entryDx=0;entryDy=0;entryPerimeter=0;" edge="1" parent="1" source="4jEnMWwqSxnV5b4VweoV-75" target="4jEnMWwqSxnV5b4VweoV-8">
          <mxGeometry relative="1" as="geometry" />
        </mxCell>
        <mxCell id="4jEnMWwqSxnV5b4VweoV-85" style="edgeStyle=orthogonalEdgeStyle;rounded=0;orthogonalLoop=1;jettySize=auto;html=1;entryX=1.002;entryY=0.897;entryDx=0;entryDy=0;entryPerimeter=0;" edge="1" parent="1" source="4jEnMWwqSxnV5b4VweoV-76" target="4jEnMWwqSxnV5b4VweoV-8">
          <mxGeometry relative="1" as="geometry" />
        </mxCell>
        <mxCell id="4jEnMWwqSxnV5b4VweoV-86" style="edgeStyle=orthogonalEdgeStyle;rounded=0;orthogonalLoop=1;jettySize=auto;html=1;entryX=0.999;entryY=0.897;entryDx=0;entryDy=0;entryPerimeter=0;" edge="1" parent="1" source="4jEnMWwqSxnV5b4VweoV-77" target="4jEnMWwqSxnV5b4VweoV-8">
          <mxGeometry relative="1" as="geometry" />
        </mxCell>
      </root>
    </mxGraphModel>
  </diagram>
</mxfile>
